<svg id="question_answer-24px" xmlns="http://www.w3.org/2000/svg" width="31.478" height="31.478" viewBox="0 0 31.478 31.478">
  <path id="Path_975" data-name="Path 975" d="M0,0H31.478V31.478H0Z" fill="none"/>
  <path id="Path_976" data-name="Path 976" d="M26.92,7.246H24.3v11.8H7.246v2.623a1.315,1.315,0,0,0,1.312,1.312H22.986l5.246,5.246V8.558A1.315,1.315,0,0,0,26.92,7.246Zm-5.246,7.87V3.312A1.315,1.315,0,0,0,20.362,2H3.312A1.315,1.315,0,0,0,2,3.312V21.674l5.246-5.246H20.362A1.315,1.315,0,0,0,21.674,15.116Z" transform="translate(0.623 0.623)"/>
</svg>
