<?xml version="1.0" encoding="utf-8"?>
<!-- Generator: Adobe Illustrator 24.1.1, SVG Export Plug-In . SVG Version: 6.00 Build 0)  -->
<svg version="1.1" id="Ebene_1" xmlns="http://www.w3.org/2000/svg" xmlns:xlink="http://www.w3.org/1999/xlink" x="0px" y="0px"
	 viewBox="0 0 260 90" style="enable-background:new 0 0 260 90;" xml:space="preserve">
<style type="text/css">
	.st0{fill:#727777;}
	.st1{fill:#B51F29;}
	.st2{fill:#FAB900;}
</style>
<g>
	<path class="st0" d="M43.9,45.1c0.4,1,0.8,2.1,1.1,3.1c0.1,0,0.2,0.1,0.4,0.1c0.1,0,0.2,0,0.3-0.1c0.4-1.2,1.5-4,2.4-6.1l1.3-2.9
		c1.1-2.4,2-4.3,2.6-5.4c0.3-0.5,0.7-0.8,1.2-0.8l0.7,0c0.1-0.1,0.1-0.5,0-0.6c-0.8,0-1.5,0.1-2.3,0.1c-0.9,0-1.8,0-2.4-0.1
		c-0.2,0.1-0.2,0.4,0,0.6l0.4,0c0.8,0.1,1.1,0.3,1.1,0.4c0,0.2,0,0.4-0.2,0.9c-0.4,1-1.5,3.7-2.2,5.3c-0.5,1.2-1.5,3.7-2.3,5.2
		c-1.2-2.7-2.3-5.4-3.3-8.1c-0.7-1.8-1.1-3.1-1.2-3.3c0-0.2,0.2-0.3,1.1-0.4l0.4,0c0.2-0.1,0.1-0.5,0-0.6c-1,0-1.8,0.1-2.8,0.1
		c-1,0-1.8,0-2.4-0.1c-0.2,0.1-0.2,0.4,0,0.6l0.4,0c1,0.1,1.4,0.6,1.9,1.9L43.9,45.1L43.9,45.1z M70.5,38.3c0-1.1,0-4,0.4-4.8
		c0.1-0.2,0.6-0.4,1.3-0.5l0.3,0c0.1-0.1,0.1-0.5,0-0.6c-0.8,0-1.4,0.1-2.4,0.1c-0.9,0-1.7,0-2.8-0.1c-0.2,0.1-0.2,0.4,0,0.6l0.4,0
		c0.9,0.1,1.3,0.3,1.5,0.5c0.4,0.7,0.5,3.8,0.5,4.9v5c0,0.5,0,0.9-0.1,1h0c-1.1-1.1-2.3-2.4-3.9-4.2l-2.3-2.6c-0.8-0.9-3.5-4-4-5.2
		c-0.3,0-0.7,0.1-1.1,0.1c-0.4,0-1.7,0-2.7-0.1c-0.2,0.1-0.2,0.4,0,0.6l0.4,0c0.6,0.1,1.1,0.2,1.5,0.6c0.5,0.5,0.5,1,0.5,1.7V42
		c0,1.1,0,4-0.3,4.8c-0.1,0.3-0.5,0.4-1,0.5l-0.6,0.1c-0.1,0.1-0.1,0.5,0,0.6c0.8,0,1.5-0.1,2.4-0.1c0.9,0,1.7,0,2.7,0.1
		c0.2-0.1,0.2-0.4,0-0.6l-0.7-0.1c-0.6,0-1.1-0.2-1.2-0.4c-0.4-0.7-0.4-3.8-0.4-4.9v-5.1c0-0.7,0-1.2,0.1-1.5h0
		c0.5,0.5,2.1,2.4,2.7,3.2l5.4,6.2c2,2.3,2.7,3.1,3,3.5c0.3,0,0.4-0.1,0.4-0.3c-0.1-0.6-0.1-3.4-0.1-4.1V38.3L70.5,38.3z M88.5,44.2
		c0-1.2,0-1.9,1-2l0.4,0c0.2-0.1,0.1-0.5,0-0.6c-0.8,0-1.6,0.1-2.5,0.1c-1.4,0-2.7,0-3.4-0.1c-0.2,0.1-0.2,0.5,0,0.6l1,0.1
		c1.5,0.2,1.5,0.3,1.5,2.3v0.9c0,0.8-0.1,1.2-0.2,1.3c-0.3,0.4-1.1,0.7-2.6,0.7c-4.7,0-7-3.5-7-8c0-3.5,2-6.8,6.5-6.8
		c2.4,0,4.2,0.8,4.8,3.3c0.1,0.1,0.6,0.1,0.6-0.1c-0.2-1.4-0.4-2.6-0.4-3.4c-0.3,0-1-0.1-1.5-0.2c-0.4-0.1-1.6-0.4-3-0.4
		c-3.5,0-5.9,1.1-7.4,2.7c-1.5,1.5-2.1,3.6-2.1,5.6c0,2.1,0.7,3.9,2.2,5.3c1.8,1.8,4.4,2.6,7.2,2.6c1.3,0,3-0.3,4.2-0.6
		c0.4-0.1,0.9-0.2,1.1-0.2c0.1-0.1,0.1-0.2,0-0.3c-0.4-0.2-0.6-0.7-0.6-1.7V44.2L88.5,44.2z M92.3,39.8c-0.1,0.1-0.2,0.4-0.2,0.6
		c0,0.2,0.1,0.5,0.4,0.7l5.5-0.5c0.1-0.1,0.2-0.4,0.2-0.6c0-0.3-0.1-0.6-0.4-0.7L92.3,39.8L92.3,39.8z M109,43.9
		c0-2.2-1.5-3.6-2.9-4.5l-1.9-1.2c-0.9-0.5-2-1.5-2-2.9c0-1.1,0.5-2.6,2.8-2.6c2.3,0,2.9,1.5,3.2,2.7c0.1,0.1,0.5,0.1,0.6-0.1
		c0-1-0.2-2.3-0.4-2.9c-0.2,0-0.5,0-0.8-0.1c-0.6-0.2-1.5-0.3-2.2-0.3c-3.1,0-4.8,1.8-4.8,4c0,1.9,1.4,3.3,2.5,4l2.2,1.5
		c1.7,1.1,1.9,2.3,1.9,3.3c0,1.4-1,2.7-2.9,2.7c-2.7,0-3.7-2.3-4-3.5c-0.1-0.1-0.4-0.1-0.6,0.1c0,1.1,0.4,2.8,0.6,3.3
		c0.4,0.3,1.7,0.9,3.7,0.9C107,48.3,109,46.5,109,43.9L109,43.9z M119.6,33.9c0-0.8,0-0.8,0.7-0.8h1.7c1.3,0,2.2,0.2,2.7,0.6
		c0.4,0.3,0.5,1.1,0.6,1.7c0.1,0.1,0.5,0.1,0.6,0c-0.1-0.7,0.1-2.6,0.4-3.6c0-0.1-0.3-0.1-0.4-0.1c-0.4,0.6-0.6,0.7-1.8,0.7h-9.5
		c-1.1,0-1.9,0-2-0.7c-0.1-0.1-0.4,0-0.4,0c-0.2,0.9-0.5,2.4-0.9,3.5c0.1,0.2,0.4,0.3,0.6,0.2c0.3-0.6,0.5-1.1,1.1-1.6
		c0.6-0.5,1.9-0.6,2.9-0.6h1.3c0.7,0,0.7,0,0.7,0.8v10.5c0,2.5-0.1,2.8-1.5,2.9l-0.8,0.1c-0.2,0.1-0.1,0.5,0,0.6
		c1.5,0,2.3-0.1,3.3-0.1c0.9,0,1.7,0,3.1,0.1c0.1-0.1,0.2-0.5,0-0.6l-0.8-0.1c-1.4-0.1-1.4-0.5-1.4-2.9V33.9L119.6,33.9z
		 M130.4,44.3c0,2.5,0,2.8-1.4,3l-0.6,0.1c-0.1,0.1-0.1,0.5,0,0.6c1.2,0,2-0.1,3-0.1c0.9,0,1.7,0,2.9,0.1c0.1-0.1,0.2-0.5,0-0.6
		l-0.6-0.1c-1.4-0.2-1.4-0.5-1.4-3V36c0-2.5,0-2.9,1.4-3l0.6,0c0.1-0.1,0.1-0.5,0-0.6c-1.2,0-2,0.1-2.9,0.1c-1,0-1.8,0-3-0.1
		c-0.1,0.1-0.2,0.5,0,0.6l0.6,0c1.4,0.1,1.4,0.5,1.4,3V44.3L130.4,44.3z M140.9,34.1c0-0.9,0-0.9,0.7-0.9h1.4c1,0,1.8,0,2.3,0.1
		c1.2,0.3,1.5,1.2,1.6,2.2c0.2,0.1,0.5,0.1,0.6-0.1c0-0.9-0.1-2-0.1-3.1c-0.3,0.1-1.7,0.1-3.2,0.1h-4.3c-0.9,0-1.7,0-2.7-0.1
		c-0.1,0.1-0.2,0.5,0,0.6l0.4,0c1.4,0.2,1.4,0.5,1.4,3v8.5c0,2.5,0,2.8-1.4,2.9l-0.6,0.1c-0.1,0.1-0.1,0.5,0,0.6
		c1.1,0,1.9-0.1,2.9-0.1c0.9,0,1.7,0,3.1,0.1c0.1-0.1,0.2-0.5,0-0.6l-0.8-0.1c-1.4-0.1-1.4-0.5-1.4-2.9v-3.3c0-0.6,0.1-0.6,0.8-0.6
		h1.6c0.9,0,1.5,0,1.8,0.1c0.4,0.1,0.6,0.5,0.8,0.9l0.2,0.9c0.2,0.1,0.5,0.1,0.6,0c0-0.5-0.1-1.4-0.1-2.3c0-0.9,0.1-1.8,0.1-2.4
		c-0.1-0.1-0.5-0.1-0.6,0l-0.2,0.9c-0.1,0.6-0.3,0.7-0.6,0.8c-0.3,0.1-1,0.1-2,0.1h-1.6c-0.7,0-0.8,0-0.8-0.6V34.1L140.9,34.1z
		 M158.1,33.9c0-0.8,0-0.8,0.7-0.8h1.7c1.3,0,2.2,0.2,2.7,0.6c0.4,0.3,0.5,1.1,0.6,1.7c0.1,0.1,0.5,0.1,0.6,0
		c-0.1-0.7,0.1-2.6,0.4-3.6c0-0.1-0.3-0.1-0.4-0.1c-0.4,0.6-0.6,0.7-1.8,0.7H153c-1.1,0-1.9,0-2-0.7c-0.1-0.1-0.4,0-0.4,0
		c-0.2,0.9-0.5,2.4-0.9,3.5c0.1,0.2,0.4,0.3,0.6,0.2c0.3-0.6,0.5-1.1,1.1-1.6c0.6-0.5,1.9-0.6,2.9-0.6h1.3c0.7,0,0.7,0,0.7,0.8v10.5
		c0,2.5-0.1,2.8-1.5,2.9l-0.8,0.1c-0.2,0.1-0.1,0.5,0,0.6c1.5,0,2.3-0.1,3.3-0.1c0.9,0,1.7,0,3.1,0.1c0.1-0.1,0.2-0.5,0-0.6
		l-0.8-0.1c-1.4-0.1-1.4-0.5-1.4-2.9V33.9L158.1,33.9z M180.2,41c0,3.6-1.3,6.2-4.7,6.2c-3.6,0-4.8-2.5-4.8-6.3v-5.1
		c0-2.4,0-2.8,1.4-3l0.6,0c0.1-0.1,0.1-0.5,0-0.6c-1.2,0-1.9,0.1-2.9,0.1c-0.9,0-1.7,0-2.9-0.1c-0.1,0.1-0.2,0.5,0,0.6l0.6,0
		c1.4,0.1,1.4,0.5,1.4,3v5.5c0,2.8,0.6,4.5,1.8,5.5c1.2,1,2.8,1.3,4.4,1.3c1.7,0,3.5-0.6,4.5-1.7c1.3-1.4,1.6-3.6,1.6-5.6v-2.7
		c0-1.3,0-4,0.3-4.8c0.1-0.3,0.6-0.5,1.2-0.6l0.6,0c0.1-0.1,0.1-0.4,0-0.6c-0.8,0-1.5,0.1-2.5,0.1c-0.9,0-1.8,0-2.7-0.1
		c-0.1,0.1-0.2,0.4,0,0.6l0.6,0c0.6,0,1,0.2,1.2,0.5c0.4,0.7,0.4,3.4,0.4,4.9V41L180.2,41z M200.4,38.3c0-1.1,0-4,0.4-4.8
		c0.1-0.2,0.6-0.4,1.3-0.5l0.3,0c0.1-0.1,0.1-0.5,0-0.6c-0.8,0-1.4,0.1-2.4,0.1c-0.9,0-1.7,0-2.8-0.1c-0.2,0.1-0.2,0.4,0,0.6l0.4,0
		c0.9,0.1,1.3,0.3,1.5,0.5c0.4,0.7,0.5,3.8,0.5,4.9v5c0,0.5,0,0.9-0.1,1h0c-1.1-1.1-2.3-2.4-3.9-4.2l-2.3-2.6c-0.8-0.9-3.5-4-4-5.2
		c-0.3,0-0.7,0.1-1.1,0.1c-0.4,0-1.7,0-2.7-0.1c-0.2,0.1-0.2,0.4,0,0.6l0.4,0c0.6,0.1,1.1,0.2,1.5,0.6c0.5,0.5,0.5,1,0.5,1.7V42
		c0,1.1,0,4-0.3,4.8c-0.1,0.3-0.5,0.4-1,0.5l-0.6,0.1c-0.1,0.1-0.1,0.5,0,0.6c0.8,0,1.5-0.1,2.4-0.1c0.9,0,1.7,0,2.7,0.1
		c0.2-0.1,0.2-0.4,0-0.6l-0.7-0.1c-0.6,0-1.1-0.2-1.2-0.4c-0.4-0.7-0.4-3.8-0.4-4.9v-5.1c0-0.7,0-1.2,0.1-1.5h0
		c0.5,0.5,2.1,2.4,2.7,3.2l5.4,6.2c2,2.3,2.7,3.1,3,3.5c0.3,0,0.4-0.1,0.4-0.3c-0.1-0.6-0.1-3.4-0.1-4.1V38.3L200.4,38.3z
		 M218.4,44.2c0-1.2,0-1.9,1-2l0.4,0c0.2-0.1,0.1-0.5,0-0.6c-0.8,0-1.6,0.1-2.5,0.1c-1.4,0-2.7,0-3.4-0.1c-0.2,0.1-0.2,0.5,0,0.6
		l1,0.1c1.5,0.2,1.5,0.3,1.5,2.3v0.9c0,0.8-0.1,1.2-0.2,1.3c-0.3,0.4-1.1,0.7-2.6,0.7c-4.7,0-7-3.5-7-8c0-3.5,2-6.8,6.5-6.8
		c2.4,0,4.2,0.8,4.8,3.3c0.1,0.1,0.6,0.1,0.6-0.1c-0.2-1.4-0.4-2.6-0.4-3.4c-0.3,0-1-0.1-1.5-0.2c-0.4-0.1-1.6-0.4-3-0.4
		c-3.5,0-5.9,1.1-7.4,2.7c-1.5,1.5-2.1,3.6-2.1,5.6c0,2.1,0.8,3.9,2.2,5.3c1.8,1.8,4.4,2.6,7.2,2.6c1.3,0,3-0.3,4.2-0.6
		c0.4-0.1,0.9-0.2,1.1-0.2c0.1-0.1,0.1-0.2,0-0.3c-0.4-0.2-0.6-0.7-0.6-1.7V44.2L218.4,44.2z"/>
	<path class="st1" d="M200.6,68c1.6,0,3-1.3,3-3c0-1.6-1.3-3-3-3c-1.6,0-3,1.3-3,3C197.6,66.7,198.9,68,200.6,68L200.6,68z"/>
	<path class="st2" d="M215.4,68c1.6,0,3-1.3,3-3c0-1.6-1.3-3-3-3c-1.6,0-3,1.3-3,3C212.5,66.7,213.8,68,215.4,68L215.4,68z"/>
	<path class="st0" d="M185.7,68c1.6,0,3-1.3,3-3c0-1.6-1.3-3-3-3c-1.6,0-3,1.3-3,3C182.8,66.7,184.1,68,185.7,68L185.7,68z"/>
</g>
</svg>
