<?xml version="1.0" standalone="no"?>
<!DOCTYPE svg PUBLIC "-//W3C//DTD SVG 20010904//EN"
 "http://www.w3.org/TR/2001/REC-SVG-20010904/DTD/svg10.dtd">
<svg version="1.0" xmlns="http://www.w3.org/2000/svg"
 width="779.000000pt" height="779.000000pt" viewBox="0 0 779.000000 779.000000"
 preserveAspectRatio="xMidYMid meet">
<metadata>
Created by potrace 1.11, written by Peter Selinger 2001-2013
</metadata>
<g transform="translate(0.000000,779.000000) scale(0.100000,-0.100000)"
fill="#000000" stroke="none">
<path d="M30 5996 c0 -3 56 -101 123 -218 68 -117 176 -303 239 -413 118 -204
725 -1256 1028 -1780 92 -159 270 -468 395 -685 125 -217 301 -521 390 -675
89 -154 273 -473 410 -710 136 -236 305 -529 375 -650 l128 -220 1545 -3 1545
-2 50 87 c27 49 90 158 139 243 156 269 1060 1835 1201 2080 74 129 140 242
145 252 8 12 -8 48 -74 165 -69 120 -782 1355 -1110 1923 -43 74 -138 239
-211 367 -73 128 -135 232 -138 233 -3 0 -59 -94 -125 -208 -284 -494 -1082
-1876 -1302 -2256 -60 -103 -112 -189 -116 -190 -7 -1 -377 635 -1074 1844
-77 135 -201 349 -274 475 -73 127 -147 255 -164 285 l-31 55 -1547 3 c-851 1
-1547 0 -1547 -2z"/>
</g>
</svg>
