<?xml version="1.0" encoding="utf-8"?>
<!-- Generator: Adobe Illustrator 25.2.3, SVG Export Plug-In . SVG Version: 6.00 Build 0)  -->
<svg version="1.1" id="Ebene_1" xmlns="http://www.w3.org/2000/svg" xmlns:xlink="http://www.w3.org/1999/xlink" x="0px" y="0px"
	 viewBox="0 0 700 700" enable-background="new 0 0 700 700" xml:space="preserve">
<path fill="#FFCC00" d="M186.548,246.828c0,0,66.398-60.269,119.516-99.086s130.753-91.935,130.753-91.935
	s16.344,81.72,21.452,121.559c5.108,39.839,17.366,155.269,17.366,155.269s-71.082-26.868-120.538-41.882
	C297.892,273.387,186.548,246.828,186.548,246.828z"/>
<path fill="#FFCC00" d="M321.387,427.634c0,0,79.677-55.161,109.301-72.527c29.624-17.366,111.344-65.376,111.344-65.376
	s10.215,82.742,10.215,112.366s1.021,116.452,1.021,116.452s-58.226-24.516-105.215-43.925S321.387,427.634,321.387,427.634z"/>
<path fill="#FFCC00" d="M683,206.989c0,0-3.95,57.42-10.215,87.849c-7.151,34.731-25.538,101.129-25.538,101.129
	s-15.323-13.28-46.989-29.624s-84.785-46.989-84.785-46.989S588,267.258,607.409,255C626.817,242.742,683,206.989,683,206.989z"/>
<path fill="#FFCC00" d="M296.871,499.14c0,0-34.731-59.247-45.968-82.742c-11.237-23.495-33.71-74.57-33.71-74.57
	s-40.86,36.774-63.333,69.462c-14.128,20.55-36.774,55.161-36.774,55.161s69.462,12.258,93.978,16.344
	C235.581,486.882,296.871,499.14,296.871,499.14z"/>
<path fill="#FFCC00" d="M251.925,605.376c0,0,18.387-29.624,32.688-43.925c14.301-14.301,57.204-50.054,57.204-50.054
	s19.409,45.968,26.559,67.419s26.559,65.376,26.559,65.376s-37.796-11.237-66.398-18.387
	C299.935,618.656,251.925,605.376,251.925,605.376z"/>
<polygon fill="#FFCC00" points="414.344,498.118 466.441,458.28 465.419,499.14 "/>
<path fill="#FFCC00" d="M187.57,620.699c0,0-40.86-51.075-61.29-73.548c-20.43-22.473-49.032-67.419-49.032-67.419
	s-30.645,36.774-40.86,57.204S18,588.011,18,588.011s63.333,14.301,87.849,18.387C130.366,610.484,187.57,620.699,187.57,620.699z"
	/>
</svg>
