<svg id="Ebene_1" data-name="Ebene 1" xmlns="http://www.w3.org/2000/svg" viewBox="0 0 420.5 74.2"><defs><style>.cls-1{fill:#1d1d1b;}.cls-2{fill:#fc0;}</style></defs><path class="cls-1" d="M109.4,238.2c-.8-2.8-1.9-6-3-8.8L94.8,201c-1.5-3.7-2.5-5.1-5.3-5.4H88.3a1.2,1.2,0,0,1,.1-1.7l6.9.2,7.9-.2a1.2,1.2,0,0,1,.1,1.7h-.9c-2.5.3-3.1.7-3.1,1.2a72.1,72.1,0,0,0,3.2,9.2c3.1,7.6,6.1,15.2,9.4,22.7,2-4.4,4.8-11.1,6.3-14.6s5-11.9,6.1-14.7a7.8,7.8,0,0,0,.6-2.6c0-.4-.7-1-3-1.2h-1.2a1.2,1.2,0,0,1,.2-1.7l6.8.2,6.3-.2a1.4,1.4,0,0,1,.2,1.7h-2a4.1,4.1,0,0,0-3.4,2.3c-1.8,3.1-4.4,8.4-7.4,15.1l-3.5,8c-2.6,6.1-5.7,13.7-6.8,17.2l-.7.2-1-.2" transform="translate(-88 -171.3)"/><path class="cls-1" d="M174.2,228.5,159,211.1c-1.8-2-6.3-7.4-7.7-8.8h-.1a20.5,20.5,0,0,0-.3,4.2v14.3c0,3.1.1,11.7,1.2,13.6s1.7,1.1,3.3,1.3l2,.2a1.1,1.1,0,0,1-.1,1.6l-7.7-.2-6.8.2a1.2,1.2,0,0,1-.1-1.6l1.8-.2c1.5-.2,2.5-.6,2.8-1.3,1-2.4.9-10.4.9-13.6V201.9c0-1.9-.1-3.2-1.4-4.7a6.9,6.9,0,0,0-4.1-1.6h-1.1a1.2,1.2,0,0,1,.1-1.7c2.8.2,6.2.2,7.4.2l3-.2c1.3,3.4,9.1,12,11.3,14.4l6.3,7.2c4.5,5.1,7.8,8.7,10.8,11.9h.2a9.1,9.1,0,0,0,.2-2.8v-14c0-3.1,0-11.6-1.3-13.6s-1.4-1-4-1.3h-1.2c-.4-.4-.4-1.5.2-1.7l7.7.2,6.8-.2a1.2,1.2,0,0,1,.1,1.7h-.9c-2.1.3-3.4.8-3.7,1.4-1.1,2.3-1,10.5-1,13.5v15.7c0,1.9,0,9.7.2,11.4a1.1,1.1,0,0,1-1.2.8c-.8-1.1-2.7-3.4-8.4-9.9" transform="translate(-88 -171.3)"/><path class="cls-1" d="M200.9,231.1a20.8,20.8,0,0,1-6-14.9,22.6,22.6,0,0,1,5.9-15.6c4.4-4.6,10.8-7.6,20.8-7.6a46,46,0,0,1,8.3.9,13.1,13.1,0,0,0,4.1.6,88.3,88.3,0,0,0,.9,9.5c-.2.6-1.3.6-1.7.2-1.9-7-6.8-9.3-13.5-9.3-12.7,0-18.3,9.1-18.3,18.9,0,12.6,6.5,22.5,19.7,22.5,4.1,0,6.5-.8,7.2-1.9a7.9,7.9,0,0,0,.7-3.8V228c0-5.5-.2-5.9-4.3-6.4l-2.9-.3a1.1,1.1,0,0,1,0-1.6l9.4.2,7-.2a1.1,1.1,0,0,1,0,1.6h-1c-2.8.4-2.8,2.2-2.8,5.5v3.7c0,2.7.3,4.2,1.5,4.7a.6.6,0,0,1,0,.8,12.2,12.2,0,0,0-3.3.6,51.7,51.7,0,0,1-11.7,1.7c-7.8,0-15-2.2-20-7.3" transform="translate(-88 -171.3)"/><path class="cls-2" d="M401.4,174.4c-3.5,7.5-6.3,15-7.3,23.2a67.7,67.7,0,0,0,2.1,26.5c1.7,6.4,4.2,14.1,9.2,18.7s13.2,2.2,16.4-4.2-7.3-13.9-11-6.5c.1-.2-1.3,2.1-.8,1.5a3.7,3.7,0,0,1,2.3-.7c1.9.7,2.3.8,1.3.2.8.5-.3-.5-.4-.7a33,33,0,0,1-1.8-3.2,59.2,59.2,0,0,1-4.3-14.9c-2.2-11.6.4-22.9,5.3-33.4,1.4-3.2.9-6.9-2.3-8.8s-7.3-.9-8.7,2.3" transform="translate(-88 -171.3)"/><path class="cls-2" d="M498.1,190.9h-1.3l.7-.4c.3-.1.4.2.6.5" transform="translate(-88 -171.3)"/><polygon class="cls-2" points="407.7 19.5 407.5 19.4 407.3 19.3 407.7 19.5"/><path class="cls-2" d="M493.6,190.2a2.3,2.3,0,0,1,1.1.2,2.2,2.2,0,0,1-1.1-.2" transform="translate(-88 -171.3)"/><path class="cls-2" d="M495.3,190.1a.3.3,0,0,0,0,.5h0l-.6-.2.6-.3" transform="translate(-88 -171.3)"/><path class="cls-2" d="M495.3,190.1l.5-.4Z" transform="translate(-88 -171.3)"/><path class="cls-2" d="M495.2,185.7c-.2-.1-.2,1.1-.6.8a8.5,8.5,0,0,0-2.8-1.2c-.4-.4-1.2.9-1.6.6s-3.5-2.3-1.9-2.1,3.7.9,5.8,1.3l4.8,2.1a3.3,3.3,0,0,0,1.4,0l-1.9.4c-.9.2-1.8-1.5-3.2-1.9" transform="translate(-88 -171.3)"/><path class="cls-2" d="M507.3,191.2l-.6-.5c-1.1.8-2,.3-3-.1l.5-.6c.6.2.6.5.1.7a4.8,4.8,0,0,1,3.5-.3c-.1.3-.2.7-.5.8" transform="translate(-88 -171.3)"/><polygon class="cls-2" points="420.4 19.3 419.8 19.1 419.8 19 420.5 19.3 420.4 19.3"/><path class="cls-2" d="M489.1,188.6l-8.3-.7c-.1-.2-.3-.5-.5-.4l-.7.4h-1.2l-.4-.2h0c-.2-.1-.1-.3,0-.5l.5-.4-.5.4a.9.9,0,0,1-.6.3,2.1,2.1,0,0,0-1.1-.1,1.4,1.4,0,0,0,1.1.1l.6.2.2.2H475c-.6-.2-1.2-.4-1.7.1h-2.5l-1.3-.7-.5.5a1.3,1.3,0,0,0-.7-.6l1.1-1c.4-.6.9,1.3,1.5.2-.6,1.1-1.1-.8-1.5-.2l-1.1,1a2.1,2.1,0,0,0-2.1.4c.7.6,1.5.1,2.1-.4a1.3,1.3,0,0,1,.7.6l.5-.5,1.3.7h-4c-8.7.3-16.7-.1-25.6.6a85.9,85.9,0,0,0-13.9,2.2c-8.7,2.1-17.3,1.7-24.6,7.2-2.8,1.9-8.2,3.6-10.7,5-4.2.3-5.7-5-5.6-5.4,0-5.4,3.3-4.5,7.9-9.2-3.2,2.9,3.8,1.5,6.7-2.4,4.3-6.2,13.2-4.1,19.8-5.9a30.6,30.6,0,0,1,5.6-.7c10.5-2.4,20.4-.5,31.3-.5,2.9.1,5.4,1.4,7.8,2.2s3.7-.2,5.2-.1a18.8,18.8,0,0,1,6,1.4l-5.9-1.2c-1.5-.1,1,1.7,2,2.1s1.2-1,1.6-.7a10.8,10.8,0,0,1,2.8,1.1c.4.3.4-.9.6-.7s2.4,2,3.3,1.7l1.9-.3a2.4,2.4,0,0,1,1.2,0l.7.4a2.6,2.6,0,0,0-.5,1.2l1.3-.3-1.3.3a2.6,2.6,0,0,1,.5-1.2,48.7,48.7,0,0,0,5.7,2.4h-.1a5.5,5.5,0,0,0-3.5.4c.6-.2.5-.5,0-.7l-.5.6c.9.4,1.9.9,3,.1l.6.5c.3-.2.3-.5.4-.9l.7.2a6.8,6.8,0,0,1-2.1,1.2" transform="translate(-88 -171.3)"/><path class="cls-2" d="M477.4,187.5l.5.2h-2.2c.4-.6,1-.4,1.7-.2" transform="translate(-88 -171.3)"/><path class="cls-2" d="M359.3,199.2c-.4,1.6-2.2,3.5-3.1,5-6.3-1.2-11.3-4.4-13.5-8.4-.5,7.4.1,15,.6,22.6" transform="translate(-88 -171.3)"/><path class="cls-2" d="M353.8,196a37.6,37.6,0,0,1-3.1,5l7.2-2.9c-3.7-.9-7.6-2.1-9.7-5.6-3.4-5.6-11.5-3-11.9,3.3s.3,13.9.8,21.5,9.3,9.6,11.6,1.6c1.8-6.4,0-15.6.4-23.1L337.2,199c3.8,6.3,10.3,9.8,17.3,11.4a6.6,6.6,0,0,0,7.2-2.9,26.7,26.7,0,0,0,3.1-5.1c1.4-3.2,1-6.8-2.2-8.7s-7.4-.9-8.8,2.3" transform="translate(-88 -171.3)"/><path class="cls-2" d="M341.2,217.1c-1.3,9.2.9,18.7-.4,27.9" transform="translate(-88 -171.3)"/><path class="cls-2" d="M339.4,241.4V241l.4.2c.1.1-.1.1-.4.2" transform="translate(-88 -171.3)"/><polygon class="cls-2" points="251.3 69.3 251.3 69.2 251.4 69.2 251.3 69.3"/><path class="cls-2" d="M339.6,239.8c.1.2.1.3,0,.4s-.1-.2,0-.4" transform="translate(-88 -171.3)"/><path class="cls-2" d="M339.9,240.4h-.5l.2-.2.3.2" transform="translate(-88 -171.3)"/><path class="cls-2" d="M339.9,240.4l.5.2Z" transform="translate(-88 -171.3)"/><path class="cls-2" d="M344.3,240.5c.1-.1-1.1-.1-.8-.3s.9-.6.9-.9-1.1-.5-.8-.6,2-1.2,1.9-.7a18,18,0,0,1-.8,2.1l-1.6,1.6a.7.7,0,0,0,.1.5l-.5-.7c-.3-.3,1.3-.6,1.6-1" transform="translate(-88 -171.3)"/><path class="cls-2" d="M339.8,244.5l.5-.2c-.9-.4-.5-.7-.1-1l.6.2c-.1.2-.5.2-.7,0s.8.9.6,1.2a1.3,1.3,0,0,1-.9-.2" transform="translate(-88 -171.3)"/><polygon class="cls-2" points="252.6 73.7 252.7 73.5 252.8 73.5 252.6 73.7 252.6 73.7"/><path class="cls-2" d="M348.4,217.8h0v.3l.2.6v1.2a9.9,9.9,0,0,1-.3,2.4,17,17,0,0,0-.5,5.1c.1.9-1,1.8-1.6,2.6s.4,1.2.5,1.7a3.6,3.6,0,0,1-.9,2.1,15.2,15.2,0,0,0,.6-2c.1-.6-1.5.3-1.9.7s1.1.4.9.5-.6.6-.9,1,1,.1.8.2-1.8.8-1.5,1.1l.6.7a.6.6,0,0,1,.1.4l-.3.2H343l.4.4-.4-.4h1.3l-1.9,2h-.1c.1-.4,0-.8-.7-1.2s.6.2.7,0l-.7-.2c-.3.4-.6.7.2,1l-.4.3h.9v.2a4.3,4.3,0,0,1-1.4-.7,8.6,8.6,0,0,0-.2-2.8c.3-.1.6-.1.4-.2l-.4-.2v-.6h.5l.5.2-.5-.2a.5.5,0,0,1-.4-.2c.1-.1.2-.2.1-.4s-.2.3-.1.4v.2h-.1l-.2-.9v-.2c.1-.2.3-.4-.3-.6H340l-.2-.7.7-.4-.6-.2.6-.2,1,.3c.6.2-1.2.4,0,.6-1.2-.2.6-.4,0-.6l-1-.3c.2-.2,0-.5-.6-.7s0,.5.6.7l-.6.2.6.2-.7.4-.3-1.3c-.9-3-1-5.8-1.4-8.9l-.5-2.6-.3-1.3-.2-.6v-.5h0c3.6-.4-8.1.7,8.1-.8h0" transform="translate(-88 -171.3)"/><path class="cls-2" d="M340.7,234.3v.2l-.2-.8c.6.2.5.4.3.6" transform="translate(-88 -171.3)"/><path class="cls-2" d="M276.7,206.2c-5.8,5.2-11.5,12.1-11.6,20.3s6.4,11.7,13.2,11.1c9.3-.8,18-7,23.5-14.2s6.8-15.4,8.5-23.3-9.5-10.7-11.5-3.2a104.8,104.8,0,0,0-3.9,35.2c.6,7.7,12.6,7.7,12,0a96.3,96.3,0,0,1,3.4-32l-11.5-3.2c-1.1,5-2,10-4.1,14.7s-6.9,9.8-12.8,12.8a17.8,17.8,0,0,1-4.9,1.4c-.6-.1-.7-.3-.3,0a1.2,1.2,0,0,1,.4.8c-.1-.7-.2-.7,0-.1-.3-4,5-9,8-11.8,5.8-5.2-2.7-13.6-8.4-8.5" transform="translate(-88 -171.3)"/><path class="cls-2" d="M302.9,200.7l-.4.2c.1-.1.1-.2.1-.4s.2.1.3.2" transform="translate(-88 -171.3)"/><polygon class="cls-2" points="214.2 29.7 214.1 29.7 214 29.7 214.2 29.7"/><path class="cls-2" d="M301.5,200.9h0" transform="translate(-88 -171.3)"/><path class="cls-2" d="M302,200.6c-.1.1-.1.3,0,.3h-.2Z" transform="translate(-88 -171.3)"/><path class="cls-2" d="M302,200.6v0Z" transform="translate(-88 -171.3)"/><path class="cls-2" d="M301.2,197.9c-.1-.1.1.7-.1.5s-.7-.4-.9-.3-.2.7-.4.6-1.4-1-.9-1.1h1.9l1.7.6h.4l-.5.4c-.2.3-.7-.6-1.2-.7" transform="translate(-88 -171.3)"/><path class="cls-2" d="M305.5,199.7l-.2-.2c-.2.6-.5.4-.9.3v-.4c.1,0,.2.2.1.4s.6-.7.9-.7a.6.6,0,0,1,0,.6" transform="translate(-88 -171.3)"/><polygon class="cls-2" points="217.8 27.9 217.5 27.8 217.5 27.8 217.8 27.8 217.8 27.9"/><path class="cls-2" d="M299.4,200.4l-2.5.7c0-.2-.1-.3-.2-.2v.3l-.3.2h-.2c-.1,0-.1-.2-.1-.3v.3h.3l-.8.3h-.1c-.3,0-.5-.1-.5.3h-.1l-.6.3c-.2-.1-.3-.3-.5-.3v.4c-.1-.2-.2-.3-.4-.3s.1-.6.2-.8.5.7.4-.1c.1.8-.4-.3-.4.1s-.1.5-.2.8-.4.1-.5.6.5-.2.5-.6.3.1.4.3v-.4c.2,0,.3.2.5.3l-1.1.6c-2.4,1.3-4.3,8.4-6.6,10.1a27.8,27.8,0,0,0-4.3,4.1c-1.7,2.3-3.2-.8-2.9,2.5,0,1.2-.9-.7-1,.1s-4-.3-4.1-.6c-2.1-1.7-.9-2.3-1.3-5.2.2,1.9,1.7-.2,1.1-2.6-.9-4,2-3.6,3.3-5.7a38.6,38.6,0,0,1,3.8-3,69.3,69.3,0,0,1,7.6-4.1,6.1,6.1,0,0,1,2.7.2c.6,0,1-.6,1.5-.7a3.1,3.1,0,0,1,1.9,0h-1.9c-.4.1.6.9,1,1s.2-.8.3-.6.7.2,1,.3,0-.7.1-.6,1,1,1.2.7l.5-.5h.6c0,.3.1.5.1.8l.3-.3-.3.3c0-.3-.1-.5-.1-.8l2.1.8h0c-.4,0-.7.2-1,.8s.1-.5-.1-.5v.5c.3.1.7.2.8-.4l.3.2c.1-.1,0-.3,0-.6h.2a6.4,6.4,0,0,1-.4,1" transform="translate(-88 -171.3)"/><path class="cls-2" d="M296.5,201.4h.1l-.6.3c0-.4.2-.4.5-.4" transform="translate(-88 -171.3)"/></svg>